<?xml version="1.0" encoding="UTF-8" standalone="no"?>
<!-- Created with Inkscape (http://www.inkscape.org/) -->

<svg
   version="1.1"
   id="svg1"
   width="666.66669"
   height="666.66669"
   viewBox="0 0 666.66669 666.66669"
   sodipodi:docname="iceberg.ai"
   xmlns:inkscape="http://www.inkscape.org/namespaces/inkscape"
   xmlns:sodipodi="http://sodipodi.sourceforge.net/DTD/sodipodi-0.dtd"
   xmlns="http://www.w3.org/2000/svg"
   xmlns:svg="http://www.w3.org/2000/svg">
  <defs
     id="defs1">
    <radialGradient
       fx="0"
       fy="0"
       cx="0"
       cy="0"
       r="1"
       gradientUnits="userSpaceOnUse"
       gradientTransform="matrix(188.90961,0,0,-188.90961,239.83832,340.7876)"
       spreadMethod="pad"
       id="radialGradient2">
      <stop
         style="stop-opacity:1;stop-color:#b2e0f9"
         offset="0"
         id="stop1" />
      <stop
         style="stop-opacity:1;stop-color:#3eb4e0"
         offset="1"
         id="stop2" />
    </radialGradient>
    <radialGradient
       fx="0"
       fy="0"
       cx="0"
       cy="0"
       r="1"
       gradientUnits="userSpaceOnUse"
       gradientTransform="matrix(188.90961,0,0,-188.90961,239.83832,340.7876)"
       spreadMethod="pad"
       id="radialGradient4">
      <stop
         style="stop-opacity:1;stop-color:#b2e0f9"
         offset="0"
         id="stop3" />
      <stop
         style="stop-opacity:1;stop-color:#3eb4e0"
         offset="1"
         id="stop4" />
    </radialGradient>
    <clipPath
       clipPathUnits="userSpaceOnUse"
       id="clipPath6">
      <path
         d="M 0,500 H 500 V 0 H 0 Z"
         transform="translate(-180.33891,-160.2363)"
         id="path6" />
    </clipPath>
    <clipPath
       clipPathUnits="userSpaceOnUse"
       id="clipPath8">
      <path
         d="M 0,500 H 500 V 0 H 0 Z"
         transform="translate(-195.5928,-158.53121)"
         id="path8" />
    </clipPath>
    <clipPath
       clipPathUnits="userSpaceOnUse"
       id="clipPath10">
      <path
         d="M 0,500 H 500 V 0 H 0 Z"
         transform="translate(-179.1045,-142.85351)"
         id="path10" />
    </clipPath>
    <clipPath
       clipPathUnits="userSpaceOnUse"
       id="clipPath12">
      <path
         d="M 0,500 H 500 V 0 H 0 Z"
         transform="translate(-139.9111,-163.8018)"
         id="path12" />
    </clipPath>
    <clipPath
       clipPathUnits="userSpaceOnUse"
       id="clipPath14">
      <path
         d="M 0,500 H 500 V 0 H 0 Z"
         transform="translate(-129.6396,-207.8604)"
         id="path14" />
    </clipPath>
    <clipPath
       clipPathUnits="userSpaceOnUse"
       id="clipPath16">
      <path
         d="M 0,500 H 500 V 0 H 0 Z"
         transform="translate(-106.66461,-157.58501)"
         id="path16" />
    </clipPath>
    <clipPath
       clipPathUnits="userSpaceOnUse"
       id="clipPath18">
      <path
         d="M 0,500 H 500 V 0 H 0 Z"
         transform="translate(-187.0786,-164.417)"
         id="path18" />
    </clipPath>
    <clipPath
       clipPathUnits="userSpaceOnUse"
       id="clipPath20">
      <path
         d="M 0,500 H 500 V 0 H 0 Z"
         transform="translate(-162.90231,-154.9854)"
         id="path20" />
    </clipPath>
    <clipPath
       clipPathUnits="userSpaceOnUse"
       id="clipPath22">
      <path
         d="M 0,500 H 500 V 0 H 0 Z"
         transform="translate(-200.8936,-137.05271)"
         id="path22" />
    </clipPath>
    <clipPath
       clipPathUnits="userSpaceOnUse"
       id="clipPath24">
      <path
         d="M 0,500 H 500 V 0 H 0 Z"
         transform="translate(-178.31151,-114.4707)"
         id="path24" />
    </clipPath>
    <clipPath
       clipPathUnits="userSpaceOnUse"
       id="clipPath26">
      <path
         d="M 0,500 H 500 V 0 H 0 Z"
         transform="translate(-135.8032,-112.34471)"
         id="path26" />
    </clipPath>
    <clipPath
       clipPathUnits="userSpaceOnUse"
       id="clipPath28">
      <path
         d="M 0,500 H 500 V 0 H 0 Z"
         transform="translate(-190.7983,-89.7627)"
         id="path28" />
    </clipPath>
    <clipPath
       clipPathUnits="userSpaceOnUse"
       id="clipPath30">
      <path
         d="M 0,500 H 500 V 0 H 0 Z"
         transform="translate(-226.66411,-118.3223)"
         id="path30" />
    </clipPath>
    <clipPath
       clipPathUnits="userSpaceOnUse"
       id="clipPath32">
      <path
         d="M 0,500 H 500 V 0 H 0 Z"
         transform="translate(-216.03711,-121.3779)"
         id="path32" />
    </clipPath>
    <clipPath
       clipPathUnits="userSpaceOnUse"
       id="clipPath34">
      <path
         d="M 0,500 H 500 V 0 H 0 Z"
         transform="translate(-226.9297,-127.0898)"
         id="path34" />
    </clipPath>
    <clipPath
       clipPathUnits="userSpaceOnUse"
       id="clipPath36">
      <path
         d="M 0,500 H 500 V 0 H 0 Z"
         transform="translate(-220.8193,-111.2822)"
         id="path36" />
    </clipPath>
    <clipPath
       clipPathUnits="userSpaceOnUse"
       id="clipPath38">
      <path
         d="M 0,500 H 500 V 0 H 0 Z"
         transform="translate(-240.74511,-92.153302)"
         id="path38" />
    </clipPath>
    <clipPath
       clipPathUnits="userSpaceOnUse"
       id="clipPath40">
      <path
         d="M 0,500 H 500 V 0 H 0 Z"
         transform="translate(-221.08501,-62.929702)"
         id="path40" />
    </clipPath>
    <clipPath
       clipPathUnits="userSpaceOnUse"
       id="clipPath42">
      <path
         d="M 0,500 H 500 V 0 H 0 Z"
         transform="translate(-320.58011,-118.5879)"
         id="path42" />
    </clipPath>
    <clipPath
       clipPathUnits="userSpaceOnUse"
       id="clipPath44">
      <path
         d="M 0,500 H 500 V 0 H 0 Z"
         transform="translate(-340.37301,-119.91701)"
         id="path44" />
    </clipPath>
    <clipPath
       clipPathUnits="userSpaceOnUse"
       id="clipPath46">
      <path
         d="M 0,500 H 500 V 0 H 0 Z"
         transform="translate(-336.65331,-133.0674)"
         id="path46" />
    </clipPath>
    <clipPath
       clipPathUnits="userSpaceOnUse"
       id="clipPath48">
      <path
         d="M 0,500 H 500 V 0 H 0 Z"
         transform="translate(-329.21481,-120.4482)"
         id="path48" />
    </clipPath>
    <clipPath
       clipPathUnits="userSpaceOnUse"
       id="clipPath50">
      <path
         d="M 0,500 H 500 V 0 H 0 Z"
         transform="translate(-322.04101,-101.4521)"
         id="path50" />
    </clipPath>
    <clipPath
       clipPathUnits="userSpaceOnUse"
       id="clipPath52">
      <path
         d="M 0,500 H 500 V 0 H 0 Z"
         transform="translate(-344.35841,-102.3818)"
         id="path52" />
    </clipPath>
    <clipPath
       clipPathUnits="userSpaceOnUse"
       id="clipPath54">
      <path
         d="M 0,500 H 500 V 0 H 0 Z"
         transform="translate(-361.36131,-123.7686)"
         id="path54" />
    </clipPath>
    <clipPath
       clipPathUnits="userSpaceOnUse"
       id="clipPath56">
      <path
         d="M 0,500 H 500 V 0 H 0 Z"
         transform="translate(-332.13671,-85.246102)"
         id="path56" />
    </clipPath>
    <clipPath
       clipPathUnits="userSpaceOnUse"
       id="clipPath58">
      <path
         d="M 0,500 H 500 V 0 H 0 Z"
         transform="translate(-368.00291,-109.02341)"
         id="path58" />
    </clipPath>
    <clipPath
       clipPathUnits="userSpaceOnUse"
       id="clipPath60">
      <path
         d="M 0,500 H 500 V 0 H 0 Z"
         transform="translate(-348.07711,-135.72461)"
         id="path60" />
    </clipPath>
    <clipPath
       clipPathUnits="userSpaceOnUse"
       id="clipPath62">
      <path
         d="M 0,500 H 500 V 0 H 0 Z"
         transform="translate(-337.98241,-147.0156)"
         id="path62" />
    </clipPath>
    <clipPath
       clipPathUnits="userSpaceOnUse"
       id="clipPath64">
      <path
         d="M 0,500 H 500 V 0 H 0 Z"
         transform="translate(-373.84771,-201.4785)"
         id="path64" />
    </clipPath>
    <clipPath
       clipPathUnits="userSpaceOnUse"
       id="clipPath66">
      <path
         d="M 0,500 H 500 V 0 H 0 Z"
         transform="translate(-356.84471,-191.6484)"
         id="path66" />
    </clipPath>
    <clipPath
       clipPathUnits="userSpaceOnUse"
       id="clipPath68">
      <path
         d="M 0,500 H 500 V 0 H 0 Z"
         transform="translate(-370.12891,-215.29391)"
         id="path68" />
    </clipPath>
    <clipPath
       clipPathUnits="userSpaceOnUse"
       id="clipPath70">
      <path
         d="M 0,500 H 500 V 0 H 0 Z"
         transform="translate(-365.34671,-198.55661)"
         id="path70" />
    </clipPath>
    <clipPath
       clipPathUnits="userSpaceOnUse"
       id="clipPath72">
      <path
         d="M 0,500 H 500 V 0 H 0 Z"
         transform="translate(-375.44241,-181.28711)"
         id="path72" />
    </clipPath>
    <clipPath
       clipPathUnits="userSpaceOnUse"
       id="clipPath74">
      <path
         d="M 0,500 H 500 V 0 H 0 Z"
         transform="translate(-403.07231,-199.48631)"
         id="path74" />
    </clipPath>
    <clipPath
       clipPathUnits="userSpaceOnUse"
       id="clipPath76">
      <path
         d="M 0,500 H 500 V 0 H 0 Z"
         transform="translate(-382.61521,-160.0332)"
         id="path76" />
    </clipPath>
    <clipPath
       clipPathUnits="userSpaceOnUse"
       id="clipPath77">
      <path
         d="M 52.705,462.489 H 466.124 V 372.601 H 52.705 Z"
         transform="translate(-123.7129,-372.60061)"
         id="path77" />
    </clipPath>
    <clipPath
       clipPathUnits="userSpaceOnUse"
       id="clipPath78">
      <path
         d="M 52.705,462.489 H 466.124 V 372.601 H 52.705 Z"
         transform="translate(-353.90331,-404.23541)"
         id="path78" />
    </clipPath>
    <clipPath
       clipPathUnits="userSpaceOnUse"
       id="clipPath79">
      <path
         d="M 52.705,462.489 H 466.124 V 372.601 H 52.705 Z"
         transform="translate(-315.93751,-425.54881)"
         id="path79" />
    </clipPath>
    <clipPath
       clipPathUnits="userSpaceOnUse"
       id="clipPath80">
      <path
         d="M 52.705,462.489 H 466.124 V 372.601 H 52.705 Z"
         transform="translate(-434.95311,-455.23241)"
         id="path80" />
    </clipPath>
    <clipPath
       clipPathUnits="userSpaceOnUse"
       id="clipPath81">
      <path
         d="M 52.705,462.489 H 466.124 V 372.601 H 52.705 Z"
         transform="translate(-136.72311,-435.84131)"
         id="path81" />
    </clipPath>
    <clipPath
       clipPathUnits="userSpaceOnUse"
       id="clipPath82">
      <path
         d="M 52.705,462.489 H 466.124 V 372.601 H 52.705 Z"
         transform="translate(-52.705102,-403.67041)"
         id="path82" />
    </clipPath>
    <clipPath
       clipPathUnits="userSpaceOnUse"
       id="clipPath89">
      <path
         d="M 0,500 H 500 V 0 H 0 Z"
         transform="matrix(1.3333333,0,0,-1.3333333,0,666.66667)"
         id="path89" />
    </clipPath>
    <clipPath
       clipPathUnits="userSpaceOnUse"
       id="clipPath91">
      <path
         d="M 0,500 H 500 V 0 H 0 Z"
         transform="translate(-127.54251,-311.17431)"
         id="path91" />
    </clipPath>
    <clipPath
       clipPathUnits="userSpaceOnUse"
       id="clipPath93">
      <path
         d="M 0,500 H 500 V 0 H 0 Z"
         transform="translate(-147.145,-333.93801)"
         id="path93" />
    </clipPath>
    <clipPath
       clipPathUnits="userSpaceOnUse"
       id="clipPath95">
      <path
         d="M 0,500 H 500 V 0 H 0 Z"
         transform="translate(-250.26561,-420.72071)"
         id="path95" />
    </clipPath>
    <clipPath
       clipPathUnits="userSpaceOnUse"
       id="clipPath97">
      <path
         d="M 0,500 H 500 V 0 H 0 Z"
         transform="translate(-256.88671,-441.91061)"
         id="path97" />
    </clipPath>
    <clipPath
       clipPathUnits="userSpaceOnUse"
       id="clipPath99">
      <path
         d="M 0,500 H 500 V 0 H 0 Z"
         transform="translate(-285.46291,-402.18211)"
         id="path99" />
    </clipPath>
    <clipPath
       clipPathUnits="userSpaceOnUse"
       id="clipPath101">
      <path
         d="M 0,500 H 500 V 0 H 0 Z"
         transform="translate(-364.69431,-240.6963)"
         id="path101" />
    </clipPath>
    <clipPath
       clipPathUnits="userSpaceOnUse"
       id="clipPath103">
      <path
         d="M 0,500 H 500 V 0 H 0 Z"
         transform="translate(-122.2056,-287.79441)"
         id="path103" />
    </clipPath>
    <clipPath
       clipPathUnits="userSpaceOnUse"
       id="clipPath105">
      <path
         d="M 0,500 H 500 V 0 H 0 Z"
         transform="translate(-366.38381,-319.68461)"
         id="path105" />
    </clipPath>
    <clipPath
       clipPathUnits="userSpaceOnUse"
       id="clipPath107">
      <path
         d="M 0,500 H 500 V 0 H 0 Z"
         transform="translate(-303.25201,-389.37601)"
         id="path107" />
    </clipPath>
    <clipPath
       clipPathUnits="userSpaceOnUse"
       id="clipPath109">
      <path
         d="M 0,500 H 500 V 0 H 0 Z"
         transform="translate(-327.24801,-359.77251)"
         id="path109" />
    </clipPath>
    <clipPath
       clipPathUnits="userSpaceOnUse"
       id="clipPath111">
      <path
         d="M 0,500 H 500 V 0 H 0 Z"
         transform="translate(-178.3149,-371.97511)"
         id="path111" />
    </clipPath>
    <clipPath
       clipPathUnits="userSpaceOnUse"
       id="clipPath113">
      <path
         d="M 0,500 H 500 V 0 H 0 Z"
         transform="translate(-144.064,-202.24901)"
         id="path113" />
    </clipPath>
    <clipPath
       clipPathUnits="userSpaceOnUse"
       id="clipPath115">
      <path
         d="M 0,500 H 500 V 0 H 0 Z"
         transform="translate(-332.03711,-183.5723)"
         id="path115" />
    </clipPath>
    <clipPath
       clipPathUnits="userSpaceOnUse"
       id="clipPath117">
      <path
         d="M 0,500 H 500 V 0 H 0 Z"
         transform="translate(-295.29981,-79.361302)"
         id="path117" />
    </clipPath>
    <clipPath
       clipPathUnits="userSpaceOnUse"
       id="clipPath119">
      <path
         d="M 0,500 H 500 V 0 H 0 Z"
         transform="translate(-227.11381,-164.9922)"
         id="path119" />
    </clipPath>
    <clipPath
       clipPathUnits="userSpaceOnUse"
       id="clipPath121">
      <path
         d="M 0,500 H 500 V 0 H 0 Z"
         transform="translate(-277.3711,-353.33741)"
         id="path121" />
    </clipPath>
    <clipPath
       clipPathUnits="userSpaceOnUse"
       id="clipPath123">
      <path
         d="M 0,500 H 500 V 0 H 0 Z"
         transform="translate(-330.91601,-341.04541)"
         id="path123" />
    </clipPath>
    <clipPath
       clipPathUnits="userSpaceOnUse"
       id="clipPath125">
      <path
         d="M 0,500 H 500 V 0 H 0 Z"
         transform="translate(-173.8003,-335.87451)"
         id="path125" />
    </clipPath>
    <clipPath
       clipPathUnits="userSpaceOnUse"
       id="clipPath127">
      <path
         d="M 0,500 H 500 V 0 H 0 Z"
         transform="translate(-235.5811,-281.793)"
         id="path127" />
    </clipPath>
    <clipPath
       clipPathUnits="userSpaceOnUse"
       id="clipPath128">
      <path
         d="M 118.552,434.583 H 290.297 V 28.0766 H 118.552 Z"
         transform="translate(-273.91311,-197.9619)"
         id="path128" />
    </clipPath>
    <clipPath
       clipPathUnits="userSpaceOnUse"
       id="clipPath130">
      <path
         d="M 0,500 H 500 V 0 H 0 Z"
         transform="matrix(1.3333333,0,0,-1.3333333,0,666.66667)"
         id="path130" />
    </clipPath>
    <clipPath
       clipPathUnits="userSpaceOnUse"
       id="clipPath132">
      <path
         d="M 0,500 H 500 V 0 H 0 Z"
         transform="translate(-309.29881,-367.52441)"
         id="path132" />
    </clipPath>
    <clipPath
       clipPathUnits="userSpaceOnUse"
       id="clipPath134">
      <path
         d="M 0,500 H 500 V 0 H 0 Z"
         transform="translate(-277.3711,-353.33741)"
         id="path134" />
    </clipPath>
    <clipPath
       clipPathUnits="userSpaceOnUse"
       id="clipPath136">
      <path
         d="M 0,500 H 500 V 0 H 0 Z"
         transform="translate(-211.8169,-320.17191)"
         id="path136" />
    </clipPath>
    <clipPath
       clipPathUnits="userSpaceOnUse"
       id="clipPath138">
      <path
         d="M 0,500 H 500 V 0 H 0 Z"
         transform="translate(-210.7207,-366.83691)"
         id="path138" />
    </clipPath>
    <clipPath
       clipPathUnits="userSpaceOnUse"
       id="clipPath140">
      <path
         d="M 0,500 H 500 V 0 H 0 Z"
         transform="translate(-152.4424,-323.88431)"
         id="path140" />
    </clipPath>
    <clipPath
       clipPathUnits="userSpaceOnUse"
       id="clipPath142">
      <path
         d="M 0,500 H 500 V 0 H 0 Z"
         transform="translate(-283.43361,-396.04001)"
         id="path142" />
    </clipPath>
    <clipPath
       clipPathUnits="userSpaceOnUse"
       id="clipPath144">
      <path
         d="M 0,500 H 500 V 0 H 0 Z"
         transform="translate(-282.20511,-385.73441)"
         id="path144" />
    </clipPath>
    <clipPath
       clipPathUnits="userSpaceOnUse"
       id="clipPath146">
      <path
         d="M 0,500 H 500 V 0 H 0 Z"
         transform="translate(-292.99321,-369.35111)"
         id="path146" />
    </clipPath>
    <clipPath
       clipPathUnits="userSpaceOnUse"
       id="clipPath148">
      <path
         d="M 0,500 H 500 V 0 H 0 Z"
         transform="translate(-313.83981,-315.08351)"
         id="path148" />
    </clipPath>
    <clipPath
       clipPathUnits="userSpaceOnUse"
       id="clipPath150">
      <path
         d="M 0,500 H 500 V 0 H 0 Z"
         transform="translate(-305.56351,-317.81351)"
         id="path150" />
    </clipPath>
    <radialGradient
       fx="0"
       fy="0"
       cx="0"
       cy="0"
       r="1"
       gradientUnits="userSpaceOnUse"
       gradientTransform="matrix(210.72273,-225.97513,-242.33154,-225.97513,261.53384,280.83044)"
       spreadMethod="pad"
       id="radialGradient153">
      <stop
         style="stop-opacity:1;stop-color:#1a3a5c"
         offset="0"
         id="stop152" />
      <stop
         style="stop-opacity:1;stop-color:#054b79"
         offset="1"
         id="stop153" />
    </radialGradient>
    <clipPath
       clipPathUnits="userSpaceOnUse"
       id="clipPath153">
      <path
         d="M 0,305.214 H 500 V 0 H 0 Z"
         id="path153" />
    </clipPath>
    <clipPath
       clipPathUnits="userSpaceOnUse"
       id="clipPath155">
      <path
         d="M 0,500 H 500 V 0 H 0 Z"
         transform="matrix(1.3333333,0,0,-1.3333333,0,666.66667)"
         id="path155" />
    </clipPath>
    <linearGradient
       x1="0"
       y1="0"
       x2="1"
       y2="0"
       gradientUnits="userSpaceOnUse"
       gradientTransform="matrix(-29.42906,-273.0015,-273.0015,29.42906,249.75714,303.50879)"
       spreadMethod="pad"
       id="linearGradient158">
      <stop
         style="stop-opacity:1;stop-color:#1a3a5c"
         offset="0"
         id="stop157" />
      <stop
         style="stop-opacity:1;stop-color:#0a1e33"
         offset="1"
         id="stop158" />
    </linearGradient>
    <clipPath
       clipPathUnits="userSpaceOnUse"
       id="clipPath158">
      <path
         d="M 118.552,305.195 H 380.869 V 24.8846 H 118.552 Z"
         id="path158" />
    </clipPath>
    <clipPath
       clipPathUnits="userSpaceOnUse"
       id="clipPath160">
      <path
         d="M 0,500 H 500 V 0 H 0 Z"
         transform="matrix(1.3333333,0,0,-1.3333333,0,666.66667)"
         id="path160" />
    </clipPath>
    <radialGradient
       fx="0"
       fy="0"
       cx="0"
       cy="0"
       r="1"
       gradientUnits="userSpaceOnUse"
       gradientTransform="matrix(99.978149,0,0,-5.4632869,358.62918,254.23547)"
       spreadMethod="pad"
       id="radialGradient163">
      <stop
         style="stop-opacity:1;stop-color:#ffffff"
         offset="0"
         id="stop162" />
      <stop
         style="stop-opacity:1;stop-color:#ffffff"
         offset="1"
         id="stop163" />
    </radialGradient>
    <clipPath
       clipPathUnits="userSpaceOnUse"
       id="clipPath163">
      <path
         d="M 252.641,261.338 H 464.617 V 247.133 H 252.641 Z"
         id="path163" />
    </clipPath>
    <clipPath
       clipPathUnits="userSpaceOnUse"
       id="clipPath165">
      <path
         d="M 0,500 H 500 V 0 H 0 Z"
         transform="matrix(1.3333333,0,0,-1.3333333,0,666.66667)"
         id="path165" />
    </clipPath>
    <radialGradient
       fx="0"
       fy="0"
       cx="0"
       cy="0"
       r="1"
       gradientUnits="userSpaceOnUse"
       gradientTransform="matrix(55.818954,0,0,-3.050216,150.81071,273.33231)"
       spreadMethod="pad"
       id="radialGradient168">
      <stop
         style="stop-opacity:1;stop-color:#ffffff"
         offset="0"
         id="stop167" />
      <stop
         style="stop-opacity:1;stop-color:#ffffff"
         offset="1"
         id="stop168" />
    </radialGradient>
    <clipPath
       clipPathUnits="userSpaceOnUse"
       id="clipPath168">
      <path
         d="M 91.6365,277.298 H 209.985 v -7.931 H 91.6365 Z"
         id="path168" />
    </clipPath>
    <clipPath
       clipPathUnits="userSpaceOnUse"
       id="clipPath170">
      <path
         d="M 0,500 H 500 V 0 H 0 Z"
         transform="matrix(1.3333333,0,0,-1.3333333,0,666.66667)"
         id="path170" />
    </clipPath>
    <radialGradient
       fx="0"
       fy="0"
       cx="0"
       cy="0"
       r="1"
       gradientUnits="userSpaceOnUse"
       gradientTransform="matrix(102.44445,0,0,-5.5980573,213.15627,228.39857)"
       spreadMethod="pad"
       id="radialGradient173">
      <stop
         style="stop-opacity:1;stop-color:#ffffff"
         offset="0"
         id="stop172" />
      <stop
         style="stop-opacity:1;stop-color:#ffffff"
         offset="1"
         id="stop173" />
    </radialGradient>
    <clipPath
       clipPathUnits="userSpaceOnUse"
       id="clipPath173">
      <path
         d="M 104.554,235.676 H 321.759 V 221.121 H 104.554 Z"
         id="path173" />
    </clipPath>
    <clipPath
       clipPathUnits="userSpaceOnUse"
       id="clipPath175">
      <path
         d="M 0,500 H 500 V 0 H 0 Z"
         transform="matrix(1.3333333,0,0,-1.3333333,0,666.66667)"
         id="path175" />
    </clipPath>
  </defs>
  <sodipodi:namedview
     id="namedview1"
     pagecolor="#ffffff"
     bordercolor="#000000"
     borderopacity="0.25"
     inkscape:showpageshadow="2"
     inkscape:pageopacity="0.0"
     inkscape:pagecheckerboard="0"
     inkscape:deskcolor="#d1d1d1">
    <inkscape:page
       x="0"
       y="0"
       inkscape:label="1"
       id="page1"
       width="666.66669"
       height="666.66669"
       margin="0"
       bleed="0" />
  </sodipodi:namedview>
  
  <g
     id="layer-MC1"
     inkscape:groupmode="layer"
     inkscape:label="OBJECTS">
    
    
    
    
    
    
    
    
    
    
    
    
    
    
    
    
    
    
    
    
    
    
    
    
    
    
    
    
    
    
    
    
    
    
    
    
    
    
    <path
       id="path90"
       d="m 0,0 17.589,29.121 1.954,-6.43 43.388,52.947 20.325,-15.506 45.732,71.1 40.26,-55.972 6.645,3.025 5.863,-21.935 8.99,5.295 39.478,-57.485 8.99,4.538 14.854,-11.723 -25.798,-102.868 -4.69,4.538 -11.727,-46.895 -5.081,3.403 -11.335,-37.819 -9.382,10.968 -21.498,-114.592 -52.767,93.414 -5.082,-4.917 -8.599,21.935 -9.772,-9.455 -18.762,56.729 -48.859,-9.078 -15.191,104.067 -8.198,0.61 -6.317,22.774 z"
       style="fill:#ffffff;fill-opacity:1;fill-rule:nonzero;stroke:none"
       transform="matrix(1.3333333,0,0,-1.3333333,170.05667,251.7676)"
       clip-path="url(#clipPath91)" />
    <path
       id="path92"
       d="M 0,0 -0.059,-0.072 -2.013,6.357 -5.598,0.422 8.275,-36.627 Z"
       style="fill:#2a6a8e;fill-opacity:1;fill-rule:nonzero;stroke:none"
       transform="matrix(1.3333333,0,0,-1.3333333,196.19333,221.416)"
       clip-path="url(#clipPath93)" />
    <path
       id="path94"
       d="m 0,0 -5.739,3.023 -33.531,-52.13 13.378,-33.756 z"
       style="fill:#2a6a8e;fill-opacity:1;fill-rule:nonzero;stroke:none"
       transform="matrix(1.3333333,0,0,-1.3333333,333.68747,105.70573)"
       clip-path="url(#clipPath95)" />
    <path
       id="path96"
       d="M 0,0 -0.356,0.496 -12.36,-18.167 -6.621,-21.19 Z"
       style="fill:#2a6a8e;fill-opacity:1;fill-rule:nonzero;stroke:none"
       transform="matrix(1.3333333,0,0,-1.3333333,342.5156,77.452533)"
       clip-path="url(#clipPath97)" />
    <path
       id="path98"
       d="m 0,0 -28.576,39.729 -6.621,-21.19 z"
       style="fill:#2a6a8e;fill-opacity:1;fill-rule:nonzero;stroke:none"
       transform="matrix(1.3333333,0,0,-1.3333333,380.6172,130.42387)"
       clip-path="url(#clipPath99)" />
    <path
       id="path100"
       d="M 0,0 14.823,59.11 -45.399,71.475 Z"
       style="fill:#2a6a8e;fill-opacity:1;fill-rule:nonzero;stroke:none"
       transform="matrix(1.3333333,0,0,-1.3333333,486.25907,345.73827)"
       clip-path="url(#clipPath101)" />
    <path
       id="path102"
       d="m 0,0 2.665,-9.605 7.789,-0.58 49.835,20.646 z"
       style="fill:#2a6a8e;fill-opacity:1;fill-rule:nonzero;stroke:none"
       transform="matrix(1.3333333,0,0,-1.3333333,162.9408,282.9408)"
       clip-path="url(#clipPath103)" />
    <path
       id="path104"
       d="m 0,0 -8.617,-4.35 -0.336,0.49 -2.401,-8.714 z"
       style="fill:#2a6a8e;fill-opacity:1;fill-rule:nonzero;stroke:none"
       transform="matrix(1.3333333,0,0,-1.3333333,488.51173,240.42053)"
       clip-path="url(#clipPath105)" />
    <path
       id="path106"
       d="m 0,0 -6.028,-2.745 -5.295,-40.131 z"
       style="fill:#2a6a8e;fill-opacity:1;fill-rule:nonzero;stroke:none"
       transform="matrix(1.3333333,0,0,-1.3333333,404.336,147.49867)"
       clip-path="url(#clipPath107)" />
    <path
       id="path108"
       d="m 0,0 -8.96,13.047 -8.989,-5.295 -0.036,0.132 -9.975,-41.457 z"
       style="fill:#2a6a8e;fill-opacity:1;fill-rule:nonzero;stroke:none"
       transform="matrix(1.3333333,0,0,-1.3333333,436.33067,186.97)"
       clip-path="url(#clipPath109)" />
    <path
       id="path110"
       d="m 0,0 -27.68,-33.778 49.725,1.206 z"
       style="fill:#2a6a8e;fill-opacity:1;fill-rule:nonzero;stroke:none"
       transform="matrix(1.3333333,0,0,-1.3333333,237.7532,170.69987)"
       clip-path="url(#clipPath111)" />
    <path
       id="path112"
       d="M 0,0 4.195,-28.735 4.389,-28.7 75.863,40.253 Z"
       style="fill:#2a6a8e;fill-opacity:1;fill-rule:nonzero;stroke:none"
       transform="matrix(1.3333333,0,0,-1.3333333,192.08533,397.00133)"
       clip-path="url(#clipPath113)" />
    <path
       id="path114"
       d="m 0,0 -50.097,96.941 33.687,-143.409 7.352,-8.595 11.335,37.818 5.081,-3.403 6.507,26.021 -13.03,26.402 z"
       style="fill:#2a6a8e;fill-opacity:1;fill-rule:nonzero;stroke:none"
       transform="matrix(1.3333333,0,0,-1.3333333,442.71613,421.9036)"
       clip-path="url(#clipPath115)" />
    <path
       id="path116"
       d="m 0,0 -31.171,102.865 -4.175,-90.748 -5.288,23.428 -3.061,-7.81 -8.906,40.123 -3.818,-29.358 0.451,0.437 52.768,-93.414 13.255,70.654 -9.498,14.79 z"
       style="fill:#2a6a8e;fill-opacity:1;fill-rule:nonzero;stroke:none"
       transform="matrix(1.3333333,0,0,-1.3333333,393.73307,560.8516)"
       clip-path="url(#clipPath117)" />
    <path
       id="path118"
       d="m 0,0 3.618,26.659 -26.015,-32.036 11.163,-33.754 9.772,9.455 7.411,-18.905 1.843,52.62 z"
       style="fill:#2a6a8e;fill-opacity:1;fill-rule:nonzero;stroke:none"
       transform="matrix(1.3333333,0,0,-1.3333333,302.8184,446.67707)"
       clip-path="url(#clipPath119)" />
    <path
       id="path120"
       d="m 0,0 5.999,21.285 -52.33,-46.117 z"
       style="fill:#2a6a8e;fill-opacity:1;fill-rule:nonzero;stroke:none"
       transform="matrix(1.3333333,0,0,-1.3333333,369.82813,195.55013)"
       clip-path="url(#clipPath121)" />
    <path
       id="path122"
       d="M 0,0 -7.985,4.697 -23.33,-13.786 -7.046,1.818 Z"
       style="fill:#2a6a8e;fill-opacity:1;fill-rule:nonzero;stroke:none"
       transform="matrix(1.3333333,0,0,-1.3333333,441.22133,211.93947)"
       clip-path="url(#clipPath123)" />
    <path
       id="path124"
       d="M 0,0 7.448,-7.566 27.185,0.541 Z"
       style="fill:#2a6a8e;fill-opacity:1;fill-rule:nonzero;stroke:none"
       transform="matrix(1.3333333,0,0,-1.3333333,231.73373,218.834)"
       clip-path="url(#clipPath125)" />
    <path
       id="path126"
       d="M 0,0 0.907,-61.242 21.779,17.78 -78.496,-11.195 Z"
       style="fill:#2a6a8e;fill-opacity:1;fill-rule:nonzero;stroke:none"
       transform="matrix(1.3333333,0,0,-1.3333333,314.10813,290.94267)"
       clip-path="url(#clipPath127)" />
    <g
       id="g129"
       clip-path="url(#clipPath130)">
      <path
         d="m 0,0 c -2.886,-2.086 -5.771,-4.172 -8.657,-6.257 -0.084,2.846 -0.169,5.692 -0.254,8.538 -5.25,-0.89 -10.2,-3.371 -13.98,-7.008 -1.397,11.121 -1.691,22.37 -0.876,33.544 -8.313,-7.919 -16.626,-15.838 -24.94,-23.757 1.23,24.976 2.729,49.94 4.499,74.886 -11.294,-4.507 -22.589,-9.014 -33.883,-13.521 3.028,8.819 7.799,17.074 13.981,24.185 -14.369,-2.909 -28.736,-5.818 -43.104,-8.728 6.222,8.953 39.909,18.506 39.909,18.506 l -16.513,0.603 26.95,22.156 -18.799,2.506 32.664,13.472 17.603,33.46 c 0,0 -21.356,-8.219 -23.99,-9.495 9.191,25.623 20.896,47.89 26.975,73.531 l -40.7,-63.276 -20.325,15.505 -43.387,-52.946 -1.954,6.429 -17.59,-29.121 -8.99,-10.211 6.318,-22.773 8.198,-0.611 15.191,-104.065 48.859,9.076 18.762,-56.729 9.771,9.455 8.6,-21.935 5.081,4.917 50.965,-90.222 C 12.092,-118.99 7.801,-68.095 3.509,-17.199 3.016,-11.345 2.488,-5.357 0,0"
         style="fill:#1e5a7e;fill-opacity:1;fill-rule:nonzero;stroke:none"
         transform="matrix(1.3333333,0,0,-1.3333333,365.21747,402.71747)"
         clip-path="url(#clipPath128)"
         id="path129" />
    </g>
    <path
       id="path131"
       d="m 0,0 -3.241,-27.929 -6.77,-13.396 z"
       style="fill:#1a4a6e;fill-opacity:1;fill-rule:nonzero;stroke:none"
       transform="matrix(1.3333333,0,0,-1.3333333,412.3984,176.63413)"
       clip-path="url(#clipPath132)" />
    <path
       id="path133"
       d="m 0,0 -22.798,-18.366 -23.533,-6.466 z"
       style="fill:#1a4a6e;fill-opacity:1;fill-rule:nonzero;stroke:none"
       transform="matrix(1.3333333,0,0,-1.3333333,369.82813,195.55013)"
       clip-path="url(#clipPath134)" />
    <path
       id="path135"
       d="M 0,0 -23.019,2.475 -5.846,-3.889 Z"
       style="fill:#1a4a6e;fill-opacity:1;fill-rule:nonzero;stroke:none"
       transform="matrix(1.3333333,0,0,-1.3333333,282.42253,239.7708)"
       clip-path="url(#clipPath136)" />
    <path
       id="path137"
       d="M 0,0 9.5,-26.868 -12.606,2.121 -0.914,-7.424 Z"
       style="fill:#1a4a6e;fill-opacity:1;fill-rule:nonzero;stroke:none"
       transform="matrix(1.3333333,0,0,-1.3333333,280.96093,177.5508)"
       clip-path="url(#clipPath138)" />
    <path
       id="path139"
       d="m 0,0 -3.471,9.015 1.462,2.474 H 17.904 L 0.731,8.131 Z"
       style="fill:#1a4a6e;fill-opacity:1;fill-rule:nonzero;stroke:none"
       transform="matrix(1.3333333,0,0,-1.3333333,203.25653,234.82093)"
       clip-path="url(#clipPath140)" />
    <path
       id="path141"
       d="M 0,0 6.555,-11.362 -12.153,-26.425 2.321,-10.834 Z"
       style="fill:#1a4a6e;fill-opacity:1;fill-rule:nonzero;stroke:none"
       transform="matrix(1.3333333,0,0,-1.3333333,377.91147,138.61333)"
       clip-path="url(#clipPath142)" />
    <path
       id="path143"
       d="m 0,0 -9.832,-11.098 2.321,6.738 z"
       style="fill:#1a4a6e;fill-opacity:1;fill-rule:nonzero;stroke:none"
       transform="matrix(1.3333333,0,0,-1.3333333,376.27347,152.35413)"
       clip-path="url(#clipPath144)" />
    <path
       id="path145"
       d="M 0,0 -3.414,-30.785 -3.688,-4.889 Z"
       style="fill:#1a4a6e;fill-opacity:1;fill-rule:nonzero;stroke:none"
       transform="matrix(1.3333333,0,0,-1.3333333,390.6576,174.19853)"
       clip-path="url(#clipPath146)" />
    <path
       id="path147"
       d="M 0,0 17.682,-29.484 -6.02,-4.732 -5.079,7.462 Z"
       style="fill:#2a6a8e;fill-opacity:1;fill-rule:nonzero;stroke:none"
       transform="matrix(1.3333333,0,0,-1.3333333,418.45307,246.55533)"
       clip-path="url(#clipPath148)" />
    <path
       id="path149"
       d="M 0,0 -1.693,-6.734 -4.703,0.91 Z"
       style="fill:#2a6a8e;fill-opacity:1;fill-rule:nonzero;stroke:none"
       transform="matrix(1.3333333,0,0,-1.3333333,407.418,242.91533)"
       clip-path="url(#clipPath150)" />
    <g
       id="g154"
       clip-path="url(#clipPath155)">
      
    </g>
    <g
       id="g159"
       clip-path="url(#clipPath160)">
      <path
         d="m 124.87,278.189 8.198,-0.609 15.191,-104.066 48.859,9.076 18.762,-56.729 9.771,9.455 8.6,-21.935 5.081,4.917 52.768,-93.413 21.499,114.592 9.38,-10.968 11.335,37.818 5.082,-3.403 11.726,46.895 4.69,-4.538 25.057,99.914 H 122.278 l -3.726,-4.232 z"
         transform="matrix(1.3333333,0,0,-1.3333333,0,666.66667)"
         style="fill:url(#linearGradient158);stroke:none"
         opacity="1"
         clip-path="url(#clipPath158)"
         id="path159" />
    </g>
    
    
    
  </g>

  <defs>
    <linearGradient id="darkOverlay" x1="0" y1="260" x2="0" y2="666" gradientUnits="userSpaceOnUse">
      <stop offset="0%" stop-color="#0a0e17" stop-opacity="0"/>
      <stop offset="40%" stop-color="#0a0e17" stop-opacity="0.3"/>
      <stop offset="100%" stop-color="#0a0e17" stop-opacity="0.85"/>
    </linearGradient>
  </defs>
  <rect x="0" y="260" width="667" height="410" fill="url(#darkOverlay)"/>
</svg>
